<svg width="24" height="24" viewBox="0 0 24 24" fill="none" xmlns="http://www.w3.org/2000/svg">
<g id="filter">
<g id="Union">
<path fill-rule="evenodd" clip-rule="evenodd" d="M8 5C9.30622 5 10.4175 5.83481 10.8293 7L21 7V9L10.8293 9C10.4175 10.1652 9.30622 11 8 11C6.69378 11 5.58254 10.1652 5.17071 9H3V7H5.17071C5.58254 5.83481 6.69378 5 8 5ZM8 9C8.55228 9 9 8.55228 9 8C9 7.44772 8.55228 7 8 7C7.44772 7 7 7.44772 7 8C7 8.55228 7.44772 9 8 9Z" fill="#8A8A8E"/>
<path fill-rule="evenodd" clip-rule="evenodd" d="M3 15V17H13.1707C13.5825 18.1652 14.6938 19 16 19C17.3062 19 18.4175 18.1652 18.8293 17H21V15H18.8293C18.4175 13.8348 17.3062 13 16 13C14.6938 13 13.5825 13.8348 13.1707 15H3ZM15 16C15 16.5523 15.4477 17 16 17C16.5523 17 17 16.5523 17 16C17 15.4477 16.5523 15 16 15C15.4477 15 15 15.4477 15 16Z" fill="#8A8A8E"/>
</g>
</g>
</svg>
