<svg width="10" height="11" viewBox="0 0 10 11" fill="none" xmlns="http://www.w3.org/2000/svg">
<g id="icons8-ruble 2" clip-path="url(#clip0_1006_151)">
<path id="Vector" d="M5 0.5C2.23875 0.5 0 2.73875 0 5.5C0 8.26125 2.23875 10.5 5 10.5C7.76125 10.5 10 8.26125 10 5.5C10 2.73875 7.76125 0.5 5 0.5ZM3.75 3.41667H5.48828C6.34578 3.41667 6.93197 3.99085 6.93197 4.8571C6.93197 5.7146 6.32307 6.33333 5.44515 6.33333H4.58333V6.75H5.41667V7.16667H4.58333V8H3.75V7.16667H2.91667V6.75H3.75V6.33333H2.91667V5.91667H3.75V3.41667ZM4.58333 4.13281V5.58219H5.25472C5.7543 5.58219 6.04574 5.32827 6.04574 4.86035C6.04532 4.3866 5.75966 4.13281 5.25716 4.13281H4.58333Z" fill="white"/>
</g>
<defs>
<clipPath id="clip0_1006_151">
<rect width="10" height="10" fill="white" transform="translate(0 0.5)"/>
</clipPath>
</defs>
</svg>
